<svg width="325" height="311" viewBox="0 0 325 311" fill="none" xmlns="http://www.w3.org/2000/svg">
<path fill-rule="evenodd" clip-rule="evenodd" d="M161.979 78.0562C187.752 56.1287 277.019 44.8322 312.114 124.772C363.716 242.308 238.404 317.814 163.03 309.152C87.8765 319.269 -39.9071 243.493 12.1143 125C47.0876 45.3385 135.856 56.2796 161.979 78.0562Z" fill="#F75252"/>
<path d="M114.114 98C85.5977 106.753 32.4181 147.807 47.8325 242C6.98443 173.388 34.7303 98 114.114 98Z" fill="#F9EBEB"/>
<path d="M163.114 72C159.514 60.8 129.281 56.6667 114.614 56C93.8142 36.8 97.9476 14 102.614 5C101.948 11.3333 105.814 28.3 126.614 45.5C140.214 41.9 132.281 13.6667 126.614 0C134.448 3.66667 150.814 17 153.614 41C168.014 21 189.281 7 198.114 2.5C192.948 5.33333 182.514 17.9 182.114 45.5C189.781 44.5 210.414 35 231.614 5C240.414 21.4 221.948 45.8333 211.614 56C196.948 56.6667 166.714 60.8 163.114 72Z" fill="#89CC5C"/>
</svg>
